<svg version="1.0" xmlns="http://www.w3.org/2000/svg" width="800.000000" height="800.000000" viewBox="0 0 800.000000 800.000000" preserveAspectRatio="xMidYMid meet">
  <metadata>
    <rdf:RDF xmlns:rdf="http://www.w3.org/1999/02/22-rdf-syntax-ns#" xmlns:rdfs="http://www.w3.org/2000/01/rdf-schema#" xmlns:dc="http://purl.org/dc/elements/1.1/">
      <rdf:Description dc:format="image/svg+xml" dc:Label="1" dc:ContentProducer="001191330110MACRLGPT8B00000" dc:ProduceID="358148398" dc:ReservedCode1="rK/xa8pM+53LIo4TJKtuFk5erXize9SBZIJ8bCUhuew=" dc:ContentPropagator="001191330110MACRLGPT8B00000" dc:PropagateID="358148398" dc:ReservedCode2="rK/xa8pM+53LIo4TJKtuFk5erXize9SBZIJ8bCUhuew="/>
    </rdf:RDF>
  </metadata>
  <g transform="translate(0.000000,800.000000) scale(0.100000,-0.100000)" fill="#000000" stroke="none">
    <path d="M2701 5814 c-167 -45 -279 -172 -302 -342 -7 -51 -9 -574 -7 -1532 l3 -1455 23 -55 c12 -30 38 -77 58 -103 36 -50 130 -118 193 -139 28 -10 326 -13 1315 -16 1147 -2 1286 -1 1335 14 135 38 243 148 283 286 10 33 13 367 13 1523 0 1640 5 1523 -66 1641 -40 67 -121 135 -199 167 l-55 22 -1270 2 c-1087 2 -1278 0 -1324 -13z m2604 -178 c28 -13 62 -36 77 -52 62 -66 58 39 58 -1586 0 -1425 -1 -1485 -19 -1524 -23 -50 -63 -90 -116 -115 -38 -18 -89 -19 -1303 -19 l-1262 0 -45 21 c-55 26 -108 85 -123 138 -9 28 -12 418 -12 1493 0 1647 -6 1524 79 1601 27 24 64 48 83 54 22 8 429 11 1283 12 l1250 1 50 -24z"/>
    <path d="M3009 5317 c-27 -14 -57 -42 -76 -71 l-33 -48 0 -285 c0 -259 2 -287 19 -321 22 -43 53 -73 98 -96 28 -14 132 -16 987 -16 1046 -1 982 -4 1042 58 51 53 53 68 55 374 1 311 1 315 -58 370 -64 61 -14 58 -1046 58 l-944 0 -44 -23z m1909 -153 c22 -15 22 -19 22 -251 0 -206 -2 -239 -17 -255 -15 -17 -57 -18 -920 -18 -890 0 -903 0 -923 20 -19 19 -20 33 -20 250 0 217 1 231 20 250 20 20 33 20 918 20 796 0 900 -2 920 -16z"/>
    <path d="M3085 4146 c-41 -18 -82 -68 -95 -116 -22 -82 32 -176 115 -199 55 -15 73 -14 122 8 127 58 127 241 1 307 -34 17 -103 17 -143 0z"/>
    <path d="M3918 4140 c-95 -52 -114 -192 -36 -267 83 -78 207 -64 263 30 45 78 25 177 -47 228 -44 32 -130 36 -180 9z"/>
    <path d="M4780 4149 c-117 -47 -134 -232 -28 -297 133 -82 291 25 257 175 -12 55 -43 98 -85 118 -36 17 -106 19 -144 4z"/>
    <path d="M3070 3548 c-52 -36 -73 -71 -78 -131 -8 -95 35 -153 131 -179 41 -11 52 -10 94 8 173 71 123 324 -64 324 -35 0 -60 -7 -83 -22z"/>
    <path d="M3913 3545 c-44 -27 -83 -91 -83 -137 0 -74 55 -148 126 -168 110 -31 214 47 214 159 0 97 -62 162 -158 168 -47 3 -64 0 -99 -22z"/>
    <path d="M4770 3551 c-19 -10 -45 -33 -58 -52 l-23 -33 3 -367 3 -367 25 -27 c37 -39 73 -55 127 -55 66 0 113 27 141 80 22 43 22 51 22 380 0 329 0 337 -22 380 -28 53 -75 80 -138 80 -25 0 -61 -8 -80 -19z"/>
    <path d="M3083 2971 c-60 -28 -93 -81 -93 -152 0 -97 69 -169 163 -169 100 0 167 69 167 172 0 69 -28 114 -90 146 -54 27 -92 28 -147 3z"/>
    <path d="M3945 2978 c-102 -37 -144 -165 -83 -254 36 -52 89 -77 154 -72 90 8 145 62 151 150 5 65 -26 133 -73 160 -39 23 -110 31 -149 16z"/>
  </g>
</svg>